<svg width="160" height="40" viewBox="0 0 160 40" fill="none" xmlns="http://www.w3.org/2000/svg">
<path d="M50.24 27.9999C49.456 27.9999 48.816 27.7599 48.32 27.2799C47.84 26.7839 47.6 26.1279 47.6 25.3119V18.5919H44.624V16.0959H47.6V12.3999H50.624V16.0959H53.888V18.5919H50.624V24.7839C50.624 25.2639 50.848 25.5039 51.296 25.5039H53.6V27.9999H50.24Z" fill="#0C0F13"/>
<path d="M61.1613 28.1919C60.2333 28.1919 59.4173 27.9839 58.7133 27.5679C58.0253 27.1359 57.4893 26.5439 57.1053 25.7919C56.7213 25.0399 56.5293 24.1759 56.5293 23.1999V16.0959H59.5533V22.9599C59.5533 23.8559 59.7693 24.5279 60.2013 24.9759C60.6493 25.4239 61.2813 25.6479 62.0973 25.6479C63.0253 25.6479 63.7453 25.3439 64.2573 24.7359C64.7693 24.1119 65.0253 23.2479 65.0253 22.1439V16.0959H68.0493V27.9999H65.0733V26.4399H64.6413C64.4493 26.8399 64.0893 27.2319 63.5613 27.6159C63.0333 27.9999 62.2333 28.1919 61.1613 28.1919Z" fill="#0C0F13"/>
<path d="M71.4144 27.9999V16.0959H74.3904V17.4399H74.8224C74.9984 16.9599 75.2864 16.6079 75.6864 16.3839C76.1024 16.1599 76.5824 16.0479 77.1264 16.0479H78.5664V18.7359H77.0784C76.3104 18.7359 75.6784 18.9439 75.1824 19.3599C74.6864 19.7599 74.4384 20.3839 74.4384 21.2319V27.9999H71.4144Z" fill="#0C0F13"/>
<path d="M80.93 27.9999V16.0959H83.906V17.6559H84.338C84.53 17.2399 84.89 16.8479 85.418 16.4799C85.946 16.0959 86.746 15.9039 87.818 15.9039C88.746 15.9039 89.554 16.1199 90.242 16.5519C90.946 16.9679 91.49 17.5519 91.874 18.3039C92.258 19.0399 92.45 19.9039 92.45 20.8959V27.9999H89.426V21.1359C89.426 20.2399 89.202 19.5679 88.754 19.1199C88.322 18.6719 87.698 18.4479 86.882 18.4479C85.954 18.4479 85.234 18.7599 84.722 19.3839C84.21 19.9919 83.954 20.8479 83.954 21.9519V27.9999H80.93Z" fill="#0C0F13"/>
<path d="M99.951 27.9999C99.167 27.9999 98.527 27.7599 98.031 27.2799C97.551 26.7839 97.311 26.1279 97.311 25.3119V18.5919H94.335V16.0959H97.311V12.3999H100.335V16.0959H103.599V18.5919H100.335V24.7839C100.335 25.2639 100.559 25.5039 101.007 25.5039H103.311V27.9999H99.951Z" fill="#8470D6"/>
<path d="M106.336 27.9999V16.0959H109.312V17.4399H109.744C109.92 16.9599 110.208 16.6079 110.608 16.3839C111.024 16.1599 111.504 16.0479 112.048 16.0479H113.488V18.7359H112C111.232 18.7359 110.6 18.9439 110.104 19.3599C109.608 19.7599 109.36 20.3839 109.36 21.2319V27.9999H106.336Z" fill="#8470D6"/>
<path d="M119.267 28.3359C118.419 28.3359 117.659 28.1919 116.987 27.9039C116.315 27.5999 115.779 27.1679 115.379 26.6079C114.995 26.0319 114.803 25.3359 114.803 24.5199C114.803 23.7039 114.995 23.0239 115.379 22.4799C115.779 21.9199 116.323 21.5039 117.011 21.2319C117.715 20.9439 118.515 20.7999 119.411 20.7999H122.675V20.1279C122.675 19.5679 122.499 19.1119 122.147 18.7599C121.795 18.3919 121.235 18.2079 120.467 18.2079C119.715 18.2079 119.155 18.3839 118.787 18.7359C118.419 19.0719 118.179 19.5119 118.067 20.0559L115.283 19.1199C115.475 18.5119 115.779 17.9599 116.195 17.4639C116.627 16.9519 117.195 16.5439 117.899 16.2399C118.619 15.9199 119.491 15.7599 120.515 15.7599C122.083 15.7599 123.323 16.1519 124.235 16.9359C125.147 17.7199 125.603 18.8559 125.603 20.3439V24.7839C125.603 25.2639 125.827 25.5039 126.275 25.5039H127.235V27.9999H125.219C124.627 27.9999 124.139 27.8559 123.755 27.5679C123.371 27.2799 123.179 26.8959 123.179 26.4159V26.3919H122.723C122.659 26.5839 122.515 26.8399 122.291 27.1599C122.067 27.4639 121.715 27.7359 121.235 27.9759C120.755 28.2159 120.099 28.3359 119.267 28.3359ZM119.795 25.8879C120.643 25.8879 121.331 25.6559 121.859 25.1919C122.403 24.7119 122.675 24.0799 122.675 23.2959V23.0559H119.627C119.067 23.0559 118.627 23.1759 118.307 23.4159C117.987 23.6559 117.827 23.9919 117.827 24.4239C117.827 24.8559 117.995 25.2079 118.331 25.4799C118.667 25.7519 119.155 25.8879 119.795 25.8879Z" fill="#8470D6"/>
<path d="M134.803 28.3359C133.651 28.3359 132.603 28.0959 131.659 27.6159C130.731 27.1359 129.995 26.4399 129.451 25.5279C128.907 24.6159 128.635 23.5119 128.635 22.2159V21.8799C128.635 20.5839 128.907 19.4799 129.451 18.5679C129.995 17.6559 130.731 16.9599 131.659 16.4799C132.603 15.9999 133.651 15.7599 134.803 15.7599C135.939 15.7599 136.915 15.9599 137.731 16.3599C138.547 16.7599 139.203 17.3119 139.699 18.0159C140.211 18.7039 140.547 19.4879 140.707 20.3679L137.779 20.9919C137.715 20.5119 137.571 20.0799 137.347 19.6959C137.123 19.3119 136.803 19.0079 136.387 18.7839C135.987 18.5599 135.483 18.4479 134.875 18.4479C134.267 18.4479 133.715 18.5839 133.219 18.8559C132.739 19.1119 132.355 19.5039 132.067 20.0319C131.795 20.5439 131.659 21.1759 131.659 21.9279V22.1679C131.659 22.9199 131.795 23.5599 132.067 24.0879C132.355 24.5999 132.739 24.9919 133.219 25.2639C133.715 25.5199 134.267 25.6479 134.875 25.6479C135.787 25.6479 136.475 25.4159 136.939 24.9519C137.419 24.4719 137.723 23.8479 137.851 23.0799L140.779 23.7759C140.571 24.6239 140.211 25.3999 139.699 26.1039C139.203 26.7919 138.547 27.3359 137.731 27.7359C136.915 28.1359 135.939 28.3359 134.803 28.3359Z" fill="#8470D6"/>
<path d="M148.698 28.3359C147.514 28.3359 146.466 28.0879 145.554 27.5919C144.658 27.0799 143.954 26.3679 143.442 25.4559C142.946 24.5279 142.698 23.4399 142.698 22.1919V21.9039C142.698 20.6559 142.946 19.5759 143.442 18.6639C143.938 17.7359 144.634 17.0239 145.53 16.5279C146.426 16.0159 147.466 15.7599 148.65 15.7599C149.818 15.7599 150.834 16.0239 151.698 16.5519C152.562 17.0639 153.234 17.7839 153.714 18.7119C154.194 19.6239 154.434 20.6879 154.434 21.9039V22.9359H145.77C145.802 23.7519 146.106 24.4159 146.682 24.9279C147.258 25.4399 147.962 25.6959 148.794 25.6959C149.642 25.6959 150.266 25.5119 150.666 25.1439C151.066 24.7759 151.37 24.3679 151.578 23.9199L154.05 25.2159C153.826 25.6319 153.498 26.0879 153.066 26.5839C152.65 27.0639 152.09 27.4799 151.386 27.8319C150.682 28.1679 149.786 28.3359 148.698 28.3359ZM145.794 20.6799H151.362C151.298 19.9919 151.018 19.4399 150.522 19.0239C150.042 18.6079 149.41 18.3999 148.626 18.3999C147.81 18.3999 147.162 18.6079 146.682 19.0239C146.202 19.4399 145.906 19.9919 145.794 20.6799Z" fill="#8470D6"/>
<path d="M7.82323 4C10.3371 6.95751 12.6837 10.7761 14.5042 14.8187C14.6799 15.2089 14.8502 15.5999 15.0148 15.9912C11.992 17.1101 9.96412 18.6717 8.8027 20.5638C6.93132 23.6126 7.60844 27.0025 9.08168 29.5838C10.5359 32.1319 12.9747 34.2869 15.3384 34.9619C16.5464 35.3069 17.9472 35.3137 19.1208 34.4775C20.2893 33.6451 20.8675 32.2359 21.0132 30.5605C21.3371 26.8356 20.5091 22.3832 18.9808 17.9615C19.8073 17.7795 20.7116 17.6197 21.7001 17.4866L21.8558 17.4654C22.6103 20.8086 23.5955 24.1871 25.1177 27.0979C26.42 29.5882 28.1502 31.8141 30.5311 33.4133C32.101 34.4676 33.9127 35.2218 36 35.616V36H4V4H7.82323Z" fill="#8470D6"/>
<path d="M11.6545 4C13.7855 6.85538 15.7037 10.1762 17.2396 13.5869C17.4698 14.0978 17.6922 14.6128 17.9061 15.1304C18.9327 14.8883 20.0427 14.6845 21.239 14.5217C21.0696 13.6607 20.9099 12.8125 20.7543 11.9861L20.7537 11.9825C20.6772 11.5763 20.6017 11.1753 20.5265 10.7807C20.2231 9.18766 20.4344 7.7544 21.2861 6.65795C22.1191 5.58561 23.3559 5.10672 24.5377 4.95044C26.8535 4.64422 29.651 5.46457 31.5821 6.75192C32.5529 7.39916 33.4707 8.27302 33.9363 9.36451C34.4464 10.5601 34.3507 11.8908 33.4716 13.0794C32.6675 14.1667 31.2878 15.0324 29.4336 15.7316C28.1919 16.1999 26.6672 16.6195 24.8228 16.9789C25.5341 20.107 26.4266 23.127 27.7762 25.7077C28.9161 27.8876 30.3468 29.6756 32.2038 30.9229C33.2787 31.6448 34.5283 32.2072 36 32.5508V4H11.6545Z" fill="#8470D6"/>
<path d="M11.3595 22.1332C12.0801 20.9592 13.5099 19.7403 16.0927 18.7899C17.5631 22.9967 18.3049 27.0757 18.0245 30.3007C17.9202 31.5003 17.5604 31.9058 17.3801 32.0342C17.2051 32.1589 16.8466 32.2727 16.1622 32.0772C14.7411 31.6715 12.8627 30.1564 11.6872 28.0968C10.5307 26.0705 10.2656 23.9152 11.3595 22.1332Z" fill="#8470D6"/>
<path d="M28.375 12.9246C27.3125 13.3253 25.9415 13.7064 24.2043 14.0429C24.0258 13.1395 23.855 12.2356 23.6856 11.339C23.6149 10.9646 23.5442 10.5907 23.4735 10.2193C23.2769 9.18734 23.4875 8.71435 23.6553 8.4983C23.8419 8.25814 24.2222 8.01828 24.931 7.92456C26.3965 7.73078 28.474 8.28543 29.9179 9.24808C30.6346 9.72584 31.0293 10.1957 31.177 10.5417C31.2802 10.7837 31.2899 10.9842 31.0596 11.2956C30.7543 11.7083 30.0012 12.3114 28.375 12.9246Z" fill="#8470D6"/>
</svg>
